<svg id="svg" version="1.1" xmlns="http://www.w3.org/2000/svg" xmlns:xlink="http://www.w3.org/1999/xlink" width="400" height="400" viewBox="0, 0, 400,400"><g id="svgg"><path id="path0" d="M282.962 30.700 C 283.717 31.592,285.090 31.993,284.584 31.173 C 284.439 30.939,284.218 30.849,284.092 30.974 C 283.967 31.099,283.490 30.886,283.032 30.501 C 282.201 29.801,282.201 29.801,282.962 30.700 M296.159 38.467 C 296.045 38.650,296.098 38.821,296.276 38.846 C 296.454 38.872,296.809 38.917,297.065 38.946 C 297.660 39.015,299.207 40.785,299.176 41.361 C 299.164 41.603,298.955 41.509,298.712 41.154 C 298.276 40.514,297.603 41.001,294.257 44.376 C 294.006 44.630,290.290 48.347,286.000 52.637 C 281.710 56.927,278.020 60.617,277.800 60.838 C 276.413 62.225,261.044 77.593,260.719 77.919 C 255.126 83.507,247.200 91.644,247.200 91.797 C 247.200 91.909,248.179 92.000,249.376 92.000 C 250.573 92.000,251.664 92.180,251.800 92.400 C 251.936 92.620,252.669 92.800,253.429 92.800 C 254.189 92.800,255.123 92.960,255.505 93.155 C 255.887 93.351,257.228 93.700,258.484 93.931 C 262.232 94.620,271.721 98.762,275.262 101.253 C 275.846 101.664,276.487 102.000,276.686 102.000 C 276.886 102.000,277.398 102.320,277.825 102.711 C 278.251 103.102,279.230 103.858,280.000 104.392 C 280.770 104.925,281.490 105.461,281.600 105.583 C 281.710 105.705,282.433 106.276,283.207 106.852 C 286.770 109.504,293.326 116.682,296.676 121.602 C 297.822 123.285,298.262 124.021,300.615 128.203 C 301.740 130.201,304.465 136.793,305.162 139.200 C 305.449 140.190,305.845 141.413,306.042 141.919 C 306.239 142.424,306.400 143.333,306.400 143.939 C 306.400 144.544,306.563 145.211,306.761 145.420 C 308.125 146.855,308.435 158.379,308.316 203.200 C 308.252 227.290,308.319 246.100,308.465 245.000 C 308.611 243.900,308.746 234.892,308.765 224.981 C 308.797 208.473,308.859 206.885,309.500 206.036 C 309.885 205.526,312.787 202.541,315.949 199.404 C 319.111 196.266,322.958 192.438,324.498 190.898 C 332.541 182.856,341.113 174.283,349.498 165.898 C 356.225 159.171,358.048 157.347,365.847 149.549 C 369.009 146.387,372.926 142.514,374.550 140.941 C 377.718 137.877,378.193 136.379,376.247 135.593 C 375.492 135.288,375.903 135.001,376.886 135.148 C 377.043 135.171,377.067 134.918,376.939 134.585 C 376.760 134.118,376.580 134.085,376.153 134.439 C 375.723 134.796,375.600 134.761,375.600 134.282 C 375.600 133.944,375.783 133.606,376.006 133.531 C 376.242 133.453,376.131 132.993,375.743 132.439 C 375.161 131.609,374.984 130.931,374.719 128.522 C 374.690 128.259,374.494 128.079,374.282 128.122 C 374.071 128.165,373.820 127.660,373.724 127.000 C 373.629 126.340,373.382 125.629,373.175 125.420 C 372.969 125.211,372.800 124.738,372.800 124.369 C 372.800 124.000,372.549 123.490,372.242 123.235 C 371.935 122.980,371.567 122.148,371.424 121.386 C 371.281 120.624,370.981 120.000,370.758 120.000 C 370.535 120.000,370.457 119.831,370.585 119.624 C 370.713 119.417,370.571 119.017,370.269 118.736 C 369.968 118.454,369.812 117.875,369.924 117.449 C 370.060 116.929,369.973 116.769,369.660 116.963 C 369.387 117.132,369.101 116.950,368.969 116.525 C 368.531 115.114,365.009 108.400,364.707 108.400 C 364.538 108.400,364.400 108.055,364.400 107.633 C 364.400 107.212,364.234 106.807,364.030 106.733 C 363.827 106.660,363.602 106.330,363.530 106.000 C 363.459 105.670,363.290 105.310,363.156 105.200 C 363.023 105.090,362.463 104.149,361.913 103.110 C 361.363 102.070,360.798 101.335,360.657 101.477 C 360.516 101.618,360.400 101.343,360.400 100.867 C 360.400 100.390,360.220 100.000,360.000 100.000 C 359.780 100.000,359.600 99.745,359.600 99.433 C 359.600 99.122,359.465 98.807,359.300 98.733 C 358.835 98.527,357.343 96.282,357.043 95.337 C 356.895 94.871,356.343 94.024,355.816 93.455 C 355.289 92.886,354.530 91.831,354.129 91.110 C 353.728 90.390,353.085 89.565,352.700 89.277 C 352.315 88.990,351.999 88.540,351.998 88.277 C 351.997 88.015,351.457 87.225,350.798 86.522 C 350.139 85.819,349.600 85.054,349.600 84.822 C 349.600 84.590,349.420 84.400,349.200 84.400 C 348.980 84.400,348.800 84.228,348.800 84.018 C 348.800 83.808,348.395 83.211,347.900 82.691 C 347.405 82.171,346.433 81.038,345.740 80.173 C 345.046 79.308,344.084 78.150,343.602 77.600 C 343.119 77.050,342.066 75.801,341.262 74.825 C 340.458 73.849,337.088 70.339,333.773 67.025 C 328.295 61.548,326.340 59.728,320.800 54.952 C 319.810 54.098,318.940 53.265,318.867 53.100 C 318.793 52.935,318.478 52.800,318.167 52.800 C 317.855 52.800,317.600 52.620,317.600 52.400 C 317.600 52.180,317.428 52.000,317.218 52.000 C 317.008 52.000,316.412 51.595,315.894 51.100 C 314.203 49.484,312.210 48.015,311.700 48.007 C 311.425 48.003,311.200 47.820,311.200 47.600 C 311.200 47.380,310.924 47.200,310.587 47.200 C 310.251 47.200,309.872 46.931,309.746 46.602 C 309.619 46.274,309.355 46.104,309.158 46.226 C 308.961 46.348,308.800 46.246,308.800 46.000 C 308.800 45.754,308.620 45.664,308.400 45.800 C 308.180 45.936,308.000 45.747,308.000 45.381 C 308.000 44.915,307.793 44.794,307.312 44.978 C 306.934 45.124,306.754 45.113,306.913 44.954 C 307.146 44.720,302.321 41.200,301.767 41.200 C 301.680 41.200,301.244 40.887,300.797 40.504 C 300.350 40.122,299.673 39.807,299.292 39.804 C 298.911 39.802,298.649 39.562,298.710 39.270 C 298.770 38.979,298.634 38.855,298.407 38.996 C 298.180 39.136,297.898 38.999,297.780 38.692 C 297.546 38.081,296.488 37.934,296.159 38.467 M186.900 151.824 C 185.305 153.454,184.000 154.882,184.000 154.996 C 184.000 155.110,202.495 155.158,225.099 155.102 L 266.198 155.000 266.999 153.500 L 267.800 152.000 266.999 150.500 L 266.198 149.000 227.999 148.930 L 189.800 148.859 186.900 151.824 M153.617 193.800 C 143.769 203.589,143.848 203.540,141.600 201.200 C 139.681 199.203,139.571 199.208,137.389 201.389 C 135.199 203.580,135.198 203.610,137.300 205.762 C 138.235 206.720,139.788 208.335,140.750 209.352 C 142.699 211.409,144.234 211.752,145.989 210.523 C 147.713 209.315,166.800 190.015,166.800 189.479 C 166.800 189.194,166.985 188.775,167.212 188.548 C 167.708 188.052,166.867 186.240,165.746 185.390 C 163.759 183.886,163.207 184.268,153.617 193.800 M178.617 196.924 C 178.186 197.186,177.601 197.612,177.317 197.871 C 176.648 198.482,176.647 201.517,177.315 202.129 C 178.943 203.617,178.431 203.600,222.425 203.600 L 265.262 203.600 266.431 202.431 C 268.039 200.823,268.013 199.107,266.358 197.560 L 265.115 196.400 222.258 196.424 C 189.840 196.441,179.209 196.563,178.617 196.924 M162.377 233.129 C 161.814 233.498,157.544 237.625,152.889 242.300 C 148.234 246.975,144.262 250.800,144.062 250.800 C 143.862 250.800,142.322 249.450,140.639 247.800 C 136.599 243.838,134.535 243.600,132.832 246.900 C 131.632 249.227,140.647 259.200,143.950 259.200 L 145.766 259.200 156.264 248.728 C 162.038 242.969,166.973 237.749,167.230 237.128 C 168.419 234.257,164.980 231.423,162.377 233.129 M190.625 244.695 C 176.466 244.829,176.800 244.749,176.800 248.000 C 176.800 251.722,172.464 251.385,221.959 251.507 C 265.273 251.613,265.438 251.611,266.312 250.796 C 267.848 249.365,267.956 247.192,266.580 245.400 C 265.949 244.578,234.282 244.284,190.625 244.695 M84.919 253.732 C 81.354 257.290,78.230 260.407,77.978 260.659 C 77.595 261.042,61.591 277.047,60.719 277.919 C 60.564 278.073,56.901 281.737,52.578 286.059 C 48.255 290.382,44.538 294.098,44.316 294.316 C 42.329 296.276,41.106 297.759,41.026 298.304 C 40.904 299.136,40.000 299.463,40.000 298.676 C 40.000 298.351,39.733 297.983,39.407 297.858 C 39.080 297.733,38.871 297.398,38.941 297.115 C 39.011 296.832,38.993 296.736,38.900 296.902 C 38.808 297.069,38.569 297.105,38.370 296.982 C 38.172 296.859,38.116 297.038,38.247 297.379 C 38.378 297.721,38.657 298.000,38.866 298.000 C 39.076 298.000,39.119 298.208,38.962 298.462 C 38.785 298.748,38.852 298.815,39.138 298.638 C 39.424 298.461,39.600 298.637,39.600 299.101 C 39.600 299.512,39.915 300.198,40.300 300.625 C 40.685 301.051,41.252 301.889,41.560 302.486 C 41.868 303.084,42.318 303.460,42.560 303.322 C 42.802 303.184,42.867 303.219,42.703 303.399 C 42.540 303.579,42.607 303.968,42.852 304.263 C 43.097 304.558,43.141 304.803,42.949 304.806 C 42.757 304.809,42.788 304.944,43.018 305.106 C 43.248 305.268,44.677 307.200,46.193 309.400 C 47.709 311.600,49.059 313.490,49.194 313.600 C 49.328 313.710,49.876 314.430,50.411 315.200 C 50.945 315.970,51.747 316.974,52.191 317.431 C 52.636 317.888,53.450 318.859,54.000 319.590 C 55.026 320.953,55.286 321.254,59.400 325.826 C 64.414 331.400,76.479 343.200,77.164 343.200 C 77.344 343.200,78.406 344.100,79.523 345.200 C 80.641 346.300,81.679 347.200,81.831 347.200 C 81.982 347.200,82.397 347.517,82.753 347.903 C 83.109 348.290,84.185 349.139,85.146 349.789 C 86.106 350.440,86.980 351.203,87.088 351.486 C 87.197 351.769,87.545 352.000,87.861 352.000 C 88.177 352.000,88.872 352.436,89.405 352.969 C 89.938 353.502,90.740 354.054,91.187 354.196 C 91.634 354.338,92.000 354.622,92.000 354.827 C 92.000 355.032,92.242 355.200,92.538 355.200 C 92.834 355.200,93.403 355.561,93.802 356.002 C 94.202 356.444,94.605 356.728,94.698 356.635 C 94.792 356.541,95.318 356.855,95.866 357.332 C 96.415 357.810,97.024 358.200,97.219 358.200 C 97.414 358.200,97.942 358.515,98.392 358.900 C 98.841 359.285,99.387 359.600,99.605 359.600 C 99.822 359.600,100.000 359.780,100.000 360.000 C 100.000 360.220,100.390 360.400,100.867 360.400 C 101.343 360.400,101.615 360.518,101.470 360.663 C 101.326 360.808,102.106 361.371,103.204 361.914 C 104.302 362.457,105.200 363.059,105.200 363.251 C 105.200 363.443,105.560 363.600,106.000 363.600 C 106.440 363.600,106.800 363.791,106.800 364.024 C 106.800 364.257,106.965 364.345,107.168 364.220 C 107.370 364.095,107.780 364.219,108.080 364.496 C 108.825 365.185,110.848 366.401,111.700 366.671 C 112.085 366.793,112.400 367.052,112.400 367.247 C 112.400 367.441,112.690 367.600,113.046 367.600 C 113.747 367.600,116.800 369.205,116.800 369.574 C 116.800 369.698,117.240 369.825,117.777 369.856 C 118.314 369.887,119.304 370.304,119.977 370.783 C 120.650 371.263,121.200 371.549,121.200 371.419 C 121.200 371.290,121.965 371.582,122.900 372.070 C 123.835 372.557,124.780 372.975,125.000 372.999 C 125.780 373.086,127.526 373.957,127.797 374.395 C 127.994 374.714,128.218 374.717,128.593 374.406 C 128.978 374.087,129.284 374.141,129.755 374.612 C 130.106 374.963,130.555 375.152,130.752 375.030 C 130.948 374.908,131.330 375.075,131.600 375.400 C 131.870 375.725,132.238 375.900,132.418 375.789 C 132.598 375.678,132.858 375.770,132.996 375.993 C 133.134 376.217,133.667 376.400,134.181 376.400 C 134.694 376.400,135.222 376.681,135.354 377.025 C 135.616 377.708,136.404 377.444,136.394 376.676 C 136.390 376.390,136.233 376.439,136.000 376.800 C 135.787 377.130,135.612 377.220,135.612 377.000 C 135.612 376.110,136.277 375.501,136.529 376.160 C 136.682 376.558,137.020 376.691,137.454 376.524 C 137.971 376.325,138.078 376.420,137.890 376.910 C 137.450 378.055,138.497 377.249,141.200 374.359 C 142.630 372.830,146.387 368.996,149.549 365.838 C 152.711 362.681,156.378 359.018,157.698 357.698 C 159.018 356.378,162.708 352.688,165.898 349.498 C 174.283 341.113,182.856 332.541,190.898 324.498 C 192.438 322.958,196.266 319.111,199.404 315.949 C 202.541 312.787,205.526 309.885,206.036 309.500 C 206.885 308.859,208.473 308.797,224.981 308.765 C 234.892 308.746,243.900 308.611,245.000 308.465 C 246.100 308.319,227.290 308.252,203.200 308.316 C 158.405 308.435,148.537 308.177,145.400 306.805 C 144.960 306.612,144.060 306.367,143.400 306.260 C 130.549 304.179,113.168 292.474,104.405 280.000 C 103.864 279.230,103.102 278.251,102.711 277.825 C 102.320 277.398,102.000 276.886,102.000 276.686 C 102.000 276.487,101.664 275.846,101.253 275.262 C 98.622 271.524,94.122 260.948,93.721 257.562 C 93.592 256.470,93.331 255.481,93.143 255.365 C 92.954 255.248,92.800 254.454,92.800 253.600 C 92.800 252.746,92.620 251.936,92.400 251.800 C 92.180 251.664,92.000 250.573,92.000 249.376 C 92.000 246.528,92.361 246.306,84.919 253.732 M266.800 249.018 C 266.800 249.430,264.752 251.285,264.536 251.069 C 264.417 250.950,264.743 250.402,265.260 249.851 C 266.156 248.895,266.800 248.547,266.800 249.018 M307.422 250.222 C 307.272 251.025,307.238 251.772,307.348 251.882 C 307.458 251.992,307.672 251.425,307.822 250.622 C 307.973 249.819,308.006 249.073,307.896 248.963 C 307.786 248.853,307.573 249.419,307.422 250.222 M306.600 254.400 C 306.450 254.873,306.417 255.350,306.527 255.460 C 306.637 255.570,306.850 255.273,307.000 254.800 C 307.150 254.327,307.183 253.850,307.073 253.740 C 306.963 253.630,306.750 253.927,306.600 254.400 M305.849 257.815 C 305.712 258.173,305.615 258.766,305.634 259.133 C 305.653 259.500,305.827 259.269,306.021 258.620 C 306.398 257.358,306.265 256.733,305.849 257.815 M305.067 260.267 C 304.920 260.413,304.811 260.908,304.825 261.367 C 304.849 262.133,304.882 262.123,305.234 261.242 C 305.626 260.263,305.544 259.789,305.067 260.267 M304.172 263.043 C 303.448 265.263,302.913 266.522,301.300 269.800 C 300.325 271.780,299.170 273.985,298.732 274.700 C 298.293 275.415,298.084 275.999,298.267 275.997 C 298.450 275.995,298.792 275.590,299.027 275.097 C 299.262 274.604,300.172 272.850,301.050 271.200 C 302.912 267.699,304.928 262.794,304.627 262.494 C 304.513 262.379,304.308 262.626,304.172 263.043 M26.618 274.900 C 26.768 275.395,27.055 275.976,27.256 276.191 C 27.457 276.406,27.419 276.001,27.172 275.291 C 26.665 273.838,26.197 273.508,26.618 274.900 M297.045 277.388 C 296.680 277.944,296.522 278.400,296.695 278.400 C 297.084 278.400,298.119 276.786,297.882 276.549 C 297.786 276.453,297.410 276.831,297.045 277.388 M294.602 280.798 C 294.203 281.239,294.007 281.600,294.167 281.600 C 294.588 281.600,295.728 280.395,295.512 280.179 C 295.411 280.078,295.002 280.356,294.602 280.798 M291.670 284.422 C 291.158 285.070,290.888 285.590,291.070 285.578 C 291.251 285.566,291.819 285.026,292.330 284.378 C 292.842 283.730,293.112 283.210,292.930 283.222 C 292.749 283.234,292.181 283.774,291.670 284.422 M288.219 288.208 C 287.374 288.982,286.766 289.699,286.867 289.800 C 286.969 289.902,287.752 289.269,288.607 288.393 C 290.531 286.422,290.293 286.309,288.219 288.208 M284.254 291.855 C 283.623 292.397,283.173 292.906,283.254 292.986 C 283.334 293.066,283.916 292.688,284.546 292.145 C 285.177 291.603,285.627 291.094,285.546 291.014 C 285.466 290.934,284.884 291.312,284.254 291.855 M36.548 293.792 C 36.210 294.672,36.581 294.946,37.162 294.245 C 37.490 293.851,37.507 293.589,37.217 293.410 C 36.984 293.267,36.683 293.438,36.548 293.792 M280.602 294.798 C 280.203 295.239,280.007 295.600,280.167 295.600 C 280.588 295.600,281.728 294.395,281.512 294.179 C 281.411 294.078,281.002 294.356,280.602 294.798 M277.194 297.218 C 276.647 297.639,276.380 297.980,276.600 297.978 C 277.129 297.973,278.591 296.858,278.365 296.631 C 278.268 296.534,277.741 296.798,277.194 297.218 M274.989 298.546 C 272.720 300.115,266.513 303.038,263.043 304.171 C 262.626 304.308,262.379 304.513,262.494 304.627 C 262.794 304.928,267.699 302.912,271.200 301.050 C 272.850 300.172,274.604 299.262,275.097 299.027 C 275.590 298.792,275.995 298.465,275.997 298.300 C 276.001 297.891,275.899 297.916,274.989 298.546 M260.200 305.200 C 259.908 305.673,260.299 305.673,261.400 305.200 C 262.171 304.869,262.169 304.855,261.324 304.828 C 260.842 304.813,260.336 304.980,260.200 305.200 M257.600 306.018 C 257.162 306.315,257.324 306.352,258.200 306.156 C 259.671 305.827,259.990 305.598,258.967 305.606 C 258.545 305.609,257.930 305.795,257.600 306.018 M254.000 306.800 C 253.467 307.145,253.467 307.188,254.000 307.188 C 254.330 307.188,254.870 307.013,255.200 306.800 C 255.733 306.455,255.733 306.412,255.200 306.412 C 254.870 306.412,254.330 306.587,254.000 306.800 M249.600 307.600 L 248.600 307.920 249.600 307.932 C 250.150 307.938,250.960 307.789,251.400 307.600 L 252.200 307.256 251.400 307.268 C 250.960 307.274,250.150 307.424,249.600 307.600 " stroke="none" fill="#5bded1" fill-rule="evenodd"></path><path id="path1" d="M331.628 64.600 C 332.162 65.260,333.500 66.608,334.600 67.595 C 336.219 69.048,335.905 68.323,334.176 66.618 C 332.078 64.548,330.704 63.460,331.628 64.600 M65.021 67.529 L 63.843 69.000 65.321 67.622 C 66.849 66.197,67.010 65.980,66.500 66.029 C 66.335 66.045,65.670 66.720,65.021 67.529 M357.081 95.500 C 357.389 96.346,358.800 98.234,358.800 97.801 C 358.800 97.435,357.202 94.800,356.980 94.800 C 356.895 94.800,356.940 95.115,357.081 95.500 M371.600 122.151 C 371.600 122.454,371.870 122.926,372.200 123.200 C 372.530 123.474,372.800 124.036,372.800 124.449 C 372.800 124.862,372.963 125.200,373.163 125.200 C 373.596 125.200,373.255 123.681,372.752 123.370 C 372.558 123.251,372.400 122.803,372.400 122.376 C 372.400 121.949,372.220 121.600,372.000 121.600 C 371.780 121.600,371.600 121.848,371.600 122.151 M373.664 126.600 C 373.721 127.260,373.977 128.070,374.232 128.400 C 374.487 128.730,374.795 129.270,374.916 129.600 C 375.061 129.994,375.148 129.891,375.168 129.300 C 375.186 128.805,375.009 128.400,374.776 128.400 C 374.543 128.400,374.452 128.239,374.574 128.042 C 374.696 127.845,374.517 127.170,374.177 126.542 L 373.559 125.400 373.664 126.600 M375.080 131.054 C 374.940 131.193,375.193 131.774,375.642 132.344 C 376.122 132.954,376.281 133.440,376.029 133.524 C 375.793 133.602,375.600 133.944,375.600 134.282 C 375.600 134.784,375.711 134.806,376.200 134.400 C 376.873 133.841,377.017 132.400,376.400 132.400 C 376.180 132.400,376.000 132.040,376.000 131.600 C 376.000 130.811,375.575 130.559,375.080 131.054 M375.982 135.211 C 375.698 135.387,375.819 135.564,376.310 135.692 C 378.250 136.200,377.673 137.920,374.550 140.941 C 372.926 142.514,369.032 146.364,365.898 149.498 C 358.151 157.245,356.220 159.175,349.498 165.898 C 341.113 174.283,332.617 182.779,324.600 190.797 C 323.060 192.337,319.190 196.187,316.000 199.353 C 312.810 202.519,309.885 205.526,309.500 206.036 C 308.858 206.886,308.799 208.429,308.792 224.581 C 308.782 244.371,308.531 247.669,306.272 257.613 C 305.452 261.223,303.097 267.376,301.113 271.092 C 300.201 272.801,299.262 274.604,299.027 275.097 C 298.792 275.590,298.465 275.995,298.300 275.997 C 298.135 275.999,298.000 276.225,297.999 276.500 C 297.999 276.775,297.459 277.630,296.800 278.400 C 296.141 279.170,295.601 279.959,295.601 280.153 C 295.600 280.347,295.283 280.797,294.896 281.153 C 294.508 281.509,293.660 282.520,293.012 283.400 C 291.489 285.466,285.466 291.489,283.400 293.012 C 282.520 293.660,281.509 294.508,281.153 294.896 C 280.797 295.283,280.347 295.600,280.153 295.601 C 279.959 295.601,279.170 296.141,278.400 296.800 C 277.630 297.459,276.775 297.999,276.500 297.999 C 276.225 298.000,275.999 298.135,275.997 298.300 C 275.995 298.465,275.590 298.792,275.097 299.027 C 274.604 299.262,272.801 300.201,271.092 301.113 C 267.376 303.097,261.223 305.452,257.613 306.272 C 247.669 308.531,244.371 308.782,224.581 308.792 C 208.429 308.799,206.886 308.858,206.036 309.500 C 205.526 309.885,202.541 312.787,199.404 315.949 C 196.266 319.111,192.438 322.958,190.898 324.498 C 182.856 332.541,174.283 341.113,165.898 349.498 C 162.708 352.688,159.018 356.378,157.698 357.698 C 156.378 359.018,152.711 362.681,149.549 365.838 C 146.387 368.996,142.630 372.830,141.200 374.359 C 138.497 377.249,137.450 378.055,137.890 376.910 C 138.078 376.420,137.971 376.325,137.454 376.524 C 137.016 376.692,136.681 376.556,136.524 376.146 C 136.321 375.616,136.188 375.669,135.753 376.453 C 135.465 376.974,135.222 377.175,135.214 376.900 C 135.206 376.625,134.786 376.400,134.280 376.400 C 133.774 376.400,133.144 376.184,132.880 375.920 C 132.507 375.547,132.400 375.591,132.400 376.120 C 132.400 376.609,132.737 376.800,133.600 376.800 C 134.260 376.800,134.800 376.957,134.800 377.150 C 134.800 377.343,135.287 377.500,135.883 377.500 C 136.479 377.500,137.034 377.702,137.117 377.950 C 137.199 378.197,137.792 378.400,138.433 378.400 C 139.075 378.400,139.600 378.580,139.600 378.800 C 139.600 379.020,140.241 379.200,141.024 379.200 C 141.871 379.200,142.347 379.362,142.200 379.600 C 142.060 379.827,142.396 380.000,142.976 380.000 C 143.539 380.000,144.000 380.180,144.000 380.400 C 144.000 380.620,144.630 380.800,145.400 380.800 C 146.170 380.800,146.800 380.980,146.800 381.200 C 146.800 381.420,147.430 381.600,148.200 381.600 C 148.970 381.600,149.600 381.780,149.600 382.000 C 149.600 382.220,150.129 382.400,150.776 382.400 C 151.423 382.400,152.057 382.569,152.184 382.775 C 152.312 382.981,153.170 383.139,154.092 383.127 C 155.014 383.114,155.835 383.305,155.917 383.552 C 155.999 383.798,156.772 384.000,157.633 384.000 C 158.495 384.000,159.200 384.180,159.200 384.400 C 159.200 384.620,160.010 384.800,161.000 384.800 C 161.990 384.800,162.800 384.980,162.800 385.200 C 162.800 385.420,163.700 385.600,164.800 385.600 C 165.900 385.600,166.800 385.780,166.800 386.000 C 166.800 386.222,167.859 386.400,169.176 386.400 C 170.483 386.400,171.664 386.580,171.800 386.800 C 171.936 387.020,173.286 387.200,174.800 387.200 C 176.314 387.200,177.664 387.380,177.800 387.600 C 177.939 387.825,179.871 388.000,182.224 388.000 C 184.741 388.000,186.400 388.159,186.400 388.400 C 186.400 388.659,191.200 388.800,200.000 388.800 C 208.800 388.800,213.600 388.659,213.600 388.400 C 213.600 388.159,215.259 388.000,217.776 388.000 C 220.129 388.000,222.061 387.825,222.200 387.600 C 222.336 387.380,223.686 387.200,225.200 387.200 C 226.714 387.200,228.064 387.020,228.200 386.800 C 228.336 386.580,229.517 386.400,230.824 386.400 C 232.141 386.400,233.200 386.222,233.200 386.000 C 233.200 385.780,234.100 385.600,235.200 385.600 C 236.300 385.600,237.200 385.420,237.200 385.200 C 237.200 384.980,238.010 384.800,239.000 384.800 C 239.990 384.800,240.800 384.620,240.800 384.400 C 240.800 384.180,241.520 384.000,242.400 384.000 C 243.280 384.000,244.000 383.820,244.000 383.600 C 244.000 383.380,244.799 383.200,245.776 383.200 C 246.753 383.200,247.664 383.020,247.800 382.800 C 247.936 382.580,248.577 382.400,249.224 382.400 C 249.871 382.400,250.400 382.220,250.400 382.000 C 250.400 381.780,251.019 381.600,251.776 381.600 C 252.533 381.600,253.264 381.420,253.400 381.200 C 253.536 380.980,254.177 380.800,254.824 380.800 C 255.471 380.800,256.000 380.620,256.000 380.400 C 256.000 380.180,256.439 380.000,256.976 380.000 C 257.513 380.000,258.064 379.820,258.200 379.600 C 258.336 379.380,258.887 379.200,259.424 379.200 C 259.961 379.200,260.400 379.020,260.400 378.800 C 260.400 378.580,260.940 378.400,261.600 378.400 C 262.260 378.400,262.800 378.220,262.800 378.000 C 262.800 377.780,263.340 377.600,264.000 377.600 C 264.660 377.600,265.200 377.420,265.200 377.200 C 265.200 376.980,265.740 376.800,266.400 376.800 C 267.060 376.800,267.600 376.620,267.600 376.400 C 267.600 376.180,267.960 376.000,268.400 376.000 C 268.840 376.000,269.200 375.820,269.200 375.600 C 269.200 375.380,269.660 375.200,270.222 375.200 C 271.147 375.200,272.896 374.541,276.161 372.962 C 276.800 372.653,277.565 372.400,277.861 372.400 C 278.158 372.400,278.400 372.220,278.400 372.000 C 278.400 371.780,278.760 371.600,279.200 371.600 C 279.640 371.600,280.000 371.420,280.000 371.200 C 280.000 370.980,280.234 370.800,280.520 370.800 C 281.256 370.800,283.193 369.859,283.197 369.500 C 283.199 369.335,283.560 369.200,284.000 369.200 C 284.440 369.200,284.800 369.020,284.800 368.800 C 284.800 368.580,285.160 368.400,285.600 368.400 C 286.040 368.400,286.400 368.220,286.400 368.000 C 286.400 367.780,286.760 367.600,287.200 367.600 C 287.640 367.600,288.000 367.420,288.000 367.200 C 288.000 366.980,288.360 366.800,288.800 366.800 C 289.240 366.800,289.600 366.654,289.600 366.475 C 289.600 366.296,290.230 365.902,291.000 365.600 C 291.770 365.298,292.400 364.904,292.400 364.725 C 292.400 364.546,292.636 364.400,292.925 364.400 C 293.213 364.400,293.836 364.040,294.308 363.600 C 294.780 363.160,295.444 362.800,295.783 362.800 C 296.122 362.800,296.400 362.620,296.400 362.400 C 296.400 362.180,296.720 362.000,297.112 362.000 C 297.503 362.000,298.083 361.640,298.400 361.200 C 298.717 360.760,299.297 360.400,299.688 360.400 C 300.080 360.400,300.400 360.220,300.400 360.000 C 300.400 359.780,300.670 359.600,301.000 359.600 C 301.330 359.600,301.600 359.420,301.600 359.200 C 301.600 358.980,301.827 358.800,302.104 358.800 C 302.730 358.800,309.166 354.533,310.047 353.534 C 310.403 353.130,310.916 352.800,311.186 352.800 C 311.457 352.800,312.183 352.260,312.800 351.600 C 313.417 350.940,314.119 350.400,314.360 350.400 C 314.602 350.400,315.541 349.680,316.448 348.800 C 317.355 347.920,318.269 347.200,318.480 347.200 C 318.690 347.200,319.554 346.480,320.400 345.600 C 321.246 344.720,322.035 344.000,322.155 344.000 C 322.399 344.000,324.451 342.209,326.968 339.800 C 327.887 338.920,329.800 337.213,331.219 336.006 C 334.355 333.339,334.189 333.506,336.402 330.806 C 337.391 329.599,338.920 327.865,339.800 326.954 C 342.138 324.532,344.000 322.405,344.000 322.155 C 344.000 322.035,344.720 321.246,345.600 320.400 C 346.480 319.554,347.200 318.690,347.200 318.480 C 347.200 318.269,347.920 317.355,348.800 316.448 C 349.680 315.541,350.400 314.602,350.400 314.360 C 350.400 314.119,350.940 313.417,351.600 312.800 C 352.260 312.183,352.800 311.431,352.800 311.128 C 352.800 310.825,353.160 310.317,353.600 310.000 C 354.040 309.683,354.400 309.287,354.400 309.120 C 354.400 308.953,355.120 307.868,356.000 306.708 C 356.879 305.549,358.079 303.655,358.665 302.500 C 359.251 301.345,359.881 300.400,360.065 300.400 C 360.249 300.400,360.400 300.080,360.400 299.688 C 360.400 299.297,360.760 298.717,361.200 298.400 C 361.640 298.083,362.000 297.503,362.000 297.112 C 362.000 296.720,362.180 296.400,362.400 296.400 C 362.620 296.400,362.800 296.122,362.800 295.783 C 362.800 295.444,363.160 294.780,363.600 294.308 C 364.040 293.836,364.400 293.213,364.400 292.925 C 364.400 292.636,364.546 292.400,364.725 292.400 C 364.904 292.400,365.298 291.770,365.600 291.000 C 365.902 290.230,366.296 289.600,366.475 289.600 C 366.654 289.600,366.800 289.240,366.800 288.800 C 366.800 288.360,366.980 288.000,367.200 288.000 C 367.420 288.000,367.600 287.640,367.600 287.200 C 367.600 286.760,367.780 286.400,368.000 286.400 C 368.220 286.400,368.400 286.040,368.400 285.600 C 368.400 285.160,368.580 284.800,368.800 284.800 C 369.020 284.800,369.200 284.440,369.200 284.000 C 369.200 283.560,369.335 283.199,369.500 283.197 C 369.859 283.193,370.800 281.256,370.800 280.520 C 370.800 280.234,370.980 280.000,371.200 280.000 C 371.420 280.000,371.600 279.640,371.600 279.200 C 371.600 278.760,371.780 278.400,372.000 278.400 C 372.220 278.400,372.400 278.158,372.400 277.861 C 372.400 277.565,372.653 276.800,372.962 276.161 C 374.541 272.896,375.200 271.147,375.200 270.222 C 375.200 269.660,375.380 269.200,375.600 269.200 C 375.820 269.200,376.000 268.840,376.000 268.400 C 376.000 267.960,376.180 267.600,376.400 267.600 C 376.620 267.600,376.800 267.060,376.800 266.400 C 376.800 265.740,376.980 265.200,377.200 265.200 C 377.420 265.200,377.600 264.660,377.600 264.000 C 377.600 263.340,377.780 262.800,378.000 262.800 C 378.220 262.800,378.400 262.260,378.400 261.600 C 378.400 260.940,378.580 260.400,378.800 260.400 C 379.020 260.400,379.200 259.961,379.200 259.424 C 379.200 258.887,379.380 258.336,379.600 258.200 C 379.820 258.064,380.000 257.513,380.000 256.976 C 380.000 256.439,380.180 256.000,380.400 256.000 C 380.620 256.000,380.800 255.471,380.800 254.824 C 380.800 254.177,380.980 253.536,381.200 253.400 C 381.420 253.264,381.600 252.533,381.600 251.776 C 381.600 251.019,381.780 250.400,382.000 250.400 C 382.220 250.400,382.400 249.871,382.400 249.224 C 382.400 248.577,382.580 247.936,382.800 247.800 C 383.020 247.664,383.200 246.753,383.200 245.776 C 383.200 244.799,383.380 244.000,383.600 244.000 C 383.820 244.000,384.000 243.280,384.000 242.400 C 384.000 241.520,384.180 240.800,384.400 240.800 C 384.620 240.800,384.800 239.990,384.800 239.000 C 384.800 238.010,384.980 237.200,385.200 237.200 C 385.420 237.200,385.600 236.300,385.600 235.200 C 385.600 234.100,385.780 233.200,386.000 233.200 C 386.222 233.200,386.400 232.141,386.400 230.824 C 386.400 229.517,386.580 228.336,386.800 228.200 C 387.020 228.064,387.200 226.714,387.200 225.200 C 387.200 223.686,387.380 222.336,387.600 222.200 C 387.823 222.062,388.000 220.204,388.000 218.000 C 388.000 215.796,388.177 213.938,388.400 213.800 C 388.654 213.643,388.800 208.604,388.800 200.000 C 388.800 191.396,388.654 186.357,388.400 186.200 C 388.178 186.063,388.000 184.223,388.000 182.056 C 388.000 179.913,387.828 177.988,387.617 177.777 C 387.406 177.566,387.201 176.090,387.161 174.497 C 387.121 172.904,386.933 171.600,386.744 171.600 C 386.555 171.600,386.400 170.520,386.400 169.200 C 386.400 167.867,386.222 166.800,386.000 166.800 C 385.780 166.800,385.600 165.900,385.600 164.800 C 385.600 163.700,385.420 162.800,385.200 162.800 C 384.980 162.800,384.800 161.990,384.800 161.000 C 384.800 160.010,384.620 159.200,384.400 159.200 C 384.180 159.200,384.000 158.495,384.000 157.633 C 384.000 156.772,383.798 155.999,383.552 155.917 C 383.305 155.835,383.114 155.014,383.127 154.092 C 383.139 153.170,382.981 152.312,382.775 152.184 C 382.569 152.057,382.400 151.423,382.400 150.776 C 382.400 150.129,382.220 149.600,382.000 149.600 C 381.780 149.600,381.600 148.981,381.600 148.224 C 381.600 147.467,381.420 146.736,381.200 146.600 C 380.980 146.464,380.800 145.823,380.800 145.176 C 380.800 144.529,380.620 144.000,380.400 144.000 C 380.180 144.000,380.000 143.627,380.000 143.171 C 380.000 142.716,379.738 142.081,379.417 141.760 C 379.096 141.439,378.934 140.917,379.056 140.599 C 379.178 140.281,379.006 139.749,378.674 139.417 C 378.342 139.085,378.166 138.451,378.282 138.007 C 378.401 137.553,378.298 137.200,378.047 137.200 C 377.801 137.200,377.600 136.690,377.600 136.067 C 377.600 134.941,376.964 134.604,375.982 135.211 M265.260 249.851 C 264.743 250.402,264.417 250.950,264.536 251.069 C 264.752 251.285,266.800 249.430,266.800 249.018 C 266.800 248.547,266.156 248.895,265.260 249.851 M64.000 331.062 C 64.000 331.550,68.436 336.000,68.922 336.000 C 69.124 336.000,68.659 335.415,67.890 334.700 C 67.121 333.985,65.931 332.788,65.246 332.041 C 64.561 331.293,64.000 330.853,64.000 331.062 M92.400 355.354 C 92.400 355.439,92.895 355.827,93.500 356.216 L 94.600 356.924 93.838 356.062 C 93.164 355.299,92.400 354.923,92.400 355.354 M94.800 356.757 C 94.800 356.950,95.250 357.403,95.800 357.763 C 96.350 358.124,96.800 358.357,96.800 358.281 C 96.800 358.206,96.350 357.753,95.800 357.275 C 95.250 356.797,94.800 356.563,94.800 356.757 M121.455 371.798 C 121.582 372.129,121.990 372.400,122.363 372.400 C 122.735 372.400,123.253 372.613,123.513 372.873 C 123.774 373.134,124.097 373.236,124.232 373.101 C 124.367 372.966,123.745 372.482,122.850 372.026 C 121.575 371.375,121.273 371.326,121.455 371.798 M124.800 373.161 C 124.800 373.359,125.385 373.753,126.100 374.035 C 126.815 374.317,127.560 374.628,127.756 374.726 C 127.951 374.824,127.993 374.712,127.848 374.477 C 127.346 373.666,124.800 372.566,124.800 373.161 M128.650 374.283 C 128.524 374.409,128.517 374.666,128.634 374.856 C 128.915 375.310,130.000 375.300,130.000 374.843 C 130.000 374.401,128.962 373.971,128.650 374.283 M130.800 375.400 C 130.800 375.730,131.092 376.000,131.449 376.000 C 131.980 376.000,132.008 375.891,131.600 375.400 C 131.326 375.070,131.034 374.800,130.951 374.800 C 130.868 374.800,130.800 375.070,130.800 375.400 " stroke="none" fill="#3ed2c2" fill-rule="evenodd"></path><path id="path2" d="M153.135 92.420 C 141.859 93.655,131.321 97.481,122.000 103.726 C 120.350 104.831,118.910 105.840,118.800 105.969 C 118.690 106.097,117.066 107.491,115.192 109.066 C 113.317 110.642,110.529 113.431,108.996 115.265 C 107.464 117.099,106.103 118.690,105.972 118.800 C 101.824 122.302,94.771 138.613,92.915 149.000 C 91.793 155.276,91.822 243.973,92.947 250.600 C 97.941 279.996,119.875 301.857,149.600 307.064 C 155.939 308.175,243.449 308.197,250.000 307.090 C 279.832 302.049,301.892 280.284,306.851 251.000 C 308.064 243.837,308.246 156.340,307.062 149.600 C 301.887 120.134,280.816 98.664,251.600 93.086 C 247.046 92.217,160.349 91.631,153.135 92.420 M166.769 137.231 C 169.617 140.079,169.491 140.279,156.885 152.885 L 145.770 164.000 144.017 164.000 C 141.432 164.000,131.999 154.711,132.002 152.168 C 132.008 147.146,136.432 146.662,140.985 151.185 L 143.991 154.171 153.132 145.085 C 163.523 134.757,164.013 134.475,166.769 137.231 M267.036 149.400 C 268.851 151.669,268.059 154.715,265.361 155.842 C 263.536 156.605,181.624 156.679,179.092 155.920 C 175.629 154.883,174.958 149.686,178.121 148.402 C 178.621 148.199,197.749 148.079,222.538 148.123 L 266.076 148.200 267.036 149.400 M167.096 185.475 C 169.372 188.319,169.246 188.509,156.898 200.879 L 145.797 212.000 144.004 212.000 C 142.238 212.000,142.135 211.923,137.106 206.856 C 131.197 200.904,130.727 199.735,133.231 197.231 C 135.439 195.023,136.977 195.396,140.827 199.074 L 144.045 202.149 152.922 193.318 C 157.805 188.462,162.070 184.383,162.400 184.255 C 163.787 183.718,166.188 184.341,167.096 185.475 M266.831 197.169 C 268.396 198.734,268.450 201.004,266.964 202.769 L 265.929 204.000 222.326 204.000 C 179.070 204.000,178.714 203.994,177.577 203.183 C 175.565 201.751,175.531 198.767,177.505 196.938 L 178.517 196.000 222.089 196.000 L 265.662 196.000 266.831 197.169 M166.831 233.169 C 168.037 234.375,168.429 236.703,167.638 237.953 C 166.680 239.465,146.129 259.615,145.235 259.918 C 142.500 260.846,131.998 251.496,132.002 248.136 C 132.005 245.833,133.346 244.375,135.707 244.109 L 137.587 243.897 140.799 247.024 L 144.012 250.150 153.142 241.075 C 163.494 230.786,164.098 230.437,166.831 233.169 M265.361 244.158 C 269.118 245.728,268.943 250.508,265.074 251.973 C 263.834 252.443,189.432 252.519,182.110 252.058 C 177.063 251.740,176.200 251.148,176.200 248.003 C 176.200 245.786,176.827 244.892,178.913 244.130 C 180.974 243.379,263.558 243.405,265.361 244.158 " stroke="none" fill="#fbfcfb" fill-rule="evenodd"></path><path id="path3" d="M188.716 11.418 C 188.358 11.775,186.519 12.021,182.858 12.200 C 179.902 12.345,178.609 12.492,177.600 12.800 C 177.490 12.833,176.500 12.866,175.400 12.872 C 174.300 12.879,173.070 13.059,172.668 13.273 C 172.265 13.487,170.960 13.679,169.768 13.699 C 168.575 13.719,167.600 13.848,167.600 13.986 C 167.600 14.124,167.008 14.276,166.283 14.325 C 165.559 14.374,164.524 14.517,163.983 14.642 C 163.443 14.768,162.550 14.959,162.000 15.066 C 161.450 15.173,160.640 15.416,160.200 15.605 C 159.760 15.795,158.680 16.058,157.800 16.191 C 156.920 16.323,155.524 16.533,154.697 16.658 C 153.871 16.782,153.095 17.045,152.974 17.242 C 152.852 17.439,152.133 17.600,151.376 17.600 C 150.619 17.600,150.000 17.780,150.000 18.000 C 150.000 18.220,149.471 18.400,148.824 18.400 C 148.177 18.400,147.536 18.580,147.400 18.800 C 147.264 19.020,146.533 19.200,145.776 19.200 C 145.019 19.200,144.400 19.380,144.400 19.600 C 144.400 19.820,143.860 20.000,143.200 20.000 C 142.540 20.000,142.000 20.180,142.000 20.400 C 142.000 20.620,141.561 20.800,141.024 20.800 C 140.487 20.800,139.936 20.980,139.800 21.200 C 139.664 21.420,139.124 21.600,138.600 21.600 C 138.076 21.600,137.536 21.780,137.400 22.000 C 137.264 22.220,136.724 22.400,136.200 22.400 C 135.676 22.400,135.136 22.580,135.000 22.800 C 134.864 23.020,134.403 23.200,133.976 23.200 C 133.549 23.200,133.200 23.380,133.200 23.600 C 133.200 23.820,132.660 24.000,132.000 24.000 C 131.340 24.000,130.800 24.180,130.800 24.400 C 130.800 24.620,130.535 24.800,130.212 24.800 C 129.889 24.800,129.034 25.131,128.312 25.535 C 127.590 25.939,126.814 26.207,126.586 26.130 C 126.359 26.054,124.933 26.614,123.418 27.377 C 121.903 28.139,120.486 28.653,120.270 28.520 C 120.050 28.384,120.003 28.481,120.162 28.738 C 120.349 29.041,120.095 29.200,119.424 29.200 C 118.861 29.200,118.400 29.336,118.400 29.502 C 118.400 29.669,117.815 30.057,117.100 30.365 C 116.385 30.673,115.299 31.274,114.686 31.700 C 114.073 32.126,113.353 32.517,113.086 32.569 C 112.104 32.759,109.200 34.198,109.200 34.494 C 109.200 34.662,108.930 34.800,108.600 34.800 C 108.270 34.800,108.000 34.980,108.000 35.200 C 108.000 35.420,107.730 35.600,107.400 35.600 C 107.070 35.600,106.800 35.780,106.800 36.000 C 106.800 36.220,106.440 36.400,106.000 36.400 C 105.560 36.400,105.200 36.580,105.200 36.800 C 105.200 37.020,104.840 37.200,104.400 37.200 C 103.960 37.200,103.600 37.380,103.600 37.600 C 103.600 37.820,103.229 38.000,102.776 38.000 C 102.323 38.000,102.064 38.180,102.200 38.400 C 102.336 38.620,102.167 38.800,101.824 38.800 C 101.481 38.800,101.200 38.958,101.200 39.151 C 101.200 39.345,100.660 39.727,100.000 40.000 C 99.340 40.273,98.797 40.610,98.794 40.749 C 98.790 40.887,97.890 41.440,96.794 41.979 C 95.697 42.517,94.800 43.102,94.800 43.279 C 94.800 43.455,94.612 43.600,94.383 43.600 C 94.154 43.600,93.569 43.975,93.083 44.434 C 92.597 44.893,91.660 45.549,91.000 45.893 C 90.340 46.237,89.509 46.852,89.153 47.259 C 88.797 47.667,88.341 48.000,88.139 48.000 C 87.938 48.000,87.149 48.540,86.386 49.200 C 83.707 51.518,81.011 53.600,80.689 53.600 C 80.172 53.600,78.423 55.489,78.691 55.758 C 78.824 55.891,78.662 56.000,78.330 56.000 C 77.999 56.000,76.844 56.806,75.764 57.791 C 72.087 61.144,67.582 65.397,66.490 66.547 C 65.890 67.178,64.050 69.110,62.400 70.841 C 60.750 72.572,58.680 74.815,57.800 75.826 C 56.920 76.838,55.795 78.092,55.300 78.614 C 54.805 79.136,54.400 79.752,54.400 79.982 C 54.400 80.212,54.220 80.400,54.000 80.400 C 53.780 80.400,53.600 80.681,53.600 81.024 C 53.600 81.367,53.420 81.536,53.200 81.400 C 52.980 81.264,52.800 81.365,52.800 81.624 C 52.800 81.883,52.305 82.682,51.700 83.400 C 51.095 84.119,50.210 85.223,49.734 85.853 C 48.959 86.880,48.005 88.063,46.807 89.483 C 46.583 89.749,46.400 90.120,46.400 90.308 C 46.400 90.495,46.085 90.998,45.700 91.425 C 44.626 92.615,42.614 95.763,42.712 96.100 C 42.761 96.265,42.620 96.400,42.400 96.400 C 42.180 96.400,42.000 96.681,42.000 97.024 C 42.000 97.367,41.820 97.536,41.600 97.400 C 41.380 97.264,41.200 97.523,41.200 97.976 C 41.200 98.429,41.020 98.800,40.800 98.800 C 40.580 98.800,40.400 99.081,40.400 99.424 C 40.400 99.767,40.220 99.936,40.000 99.800 C 39.780 99.664,39.600 99.923,39.600 100.376 C 39.600 100.829,39.420 101.200,39.200 101.200 C 38.980 101.200,38.800 101.481,38.800 101.824 C 38.800 102.167,38.620 102.336,38.400 102.200 C 38.180 102.064,38.000 102.198,38.000 102.497 C 38.000 103.251,37.065 105.193,36.700 105.197 C 36.535 105.199,36.400 105.560,36.400 106.000 C 36.400 106.440,36.220 106.800,36.000 106.800 C 35.780 106.800,35.600 107.055,35.600 107.367 C 35.600 107.678,35.459 107.993,35.286 108.067 C 35.113 108.140,34.184 109.730,33.222 111.600 C 32.259 113.470,31.321 115.060,31.136 115.133 C 30.951 115.207,30.800 115.486,30.800 115.754 C 30.800 116.463,29.851 118.393,29.500 118.397 C 29.335 118.399,29.200 118.745,29.200 119.167 C 29.200 119.588,29.022 119.993,28.803 120.067 C 28.585 120.140,28.366 120.695,28.316 121.300 C 28.266 121.905,28.055 122.400,27.846 122.400 C 27.637 122.400,27.576 122.510,27.711 122.644 C 27.845 122.778,27.538 123.548,27.029 124.355 C 26.519 125.161,25.976 126.399,25.821 127.106 C 25.665 127.813,25.372 128.494,25.169 128.619 C 24.966 128.745,24.800 129.377,24.800 130.024 C 24.800 130.671,24.620 131.200,24.400 131.200 C 24.180 131.200,24.000 131.650,24.000 132.200 C 24.000 132.750,23.820 133.200,23.600 133.200 C 23.380 133.200,23.200 133.549,23.200 133.976 C 23.200 134.403,23.020 134.864,22.800 135.000 C 22.580 135.136,22.400 135.599,22.400 136.029 C 22.400 136.459,22.235 137.123,22.033 137.505 C 21.832 137.887,21.247 139.594,20.733 141.298 C 20.220 143.002,19.665 144.397,19.500 144.398 C 19.335 144.399,19.200 144.929,19.200 145.576 C 19.200 146.223,19.020 146.864,18.800 147.000 C 18.580 147.136,18.400 147.867,18.400 148.624 C 18.400 149.381,18.239 150.000,18.042 150.000 C 17.845 150.000,17.582 150.675,17.457 151.500 C 16.900 155.191,16.676 156.213,16.387 156.400 C 16.217 156.510,16.027 157.320,15.965 158.200 C 15.902 159.080,15.727 159.980,15.576 160.200 C 15.230 160.703,14.607 163.873,14.338 166.500 C 14.276 167.105,14.113 167.600,13.977 167.600 C 13.840 167.600,13.749 168.342,13.775 169.249 C 13.802 170.156,13.607 171.526,13.343 172.294 C 13.079 173.062,12.915 174.525,12.979 175.545 C 13.042 176.565,12.988 177.580,12.858 177.800 C 12.420 178.544,12.090 182.290,11.970 187.900 C 11.948 188.904,11.742 189.603,11.467 189.606 C 11.168 189.610,11.196 189.736,11.543 189.956 C 11.922 190.197,11.952 190.383,11.642 190.574 C 11.318 190.774,11.317 191.071,11.639 191.673 C 11.975 192.301,11.966 192.426,11.600 192.200 C 11.227 191.970,11.227 192.103,11.597 192.795 C 11.942 193.439,11.953 193.807,11.637 194.123 C 11.113 194.647,11.052 195.339,11.557 195.026 C 11.763 194.899,11.783 195.391,11.603 196.185 C 11.396 197.105,11.443 197.626,11.746 197.750 C 12.054 197.877,12.039 197.947,11.700 197.968 C 10.960 198.015,11.094 199.097,11.900 199.580 C 12.567 199.980,12.567 200.020,11.900 200.420 C 11.151 200.869,10.936 202.000,11.600 202.000 C 11.820 202.000,12.000 202.191,12.000 202.424 C 12.000 202.657,11.775 202.733,11.500 202.594 C 11.225 202.455,11.360 202.633,11.800 202.990 C 12.540 203.591,12.610 203.590,12.739 202.968 C 12.816 202.599,14.886 200.341,17.339 197.951 C 19.793 195.561,23.060 192.344,24.600 190.801 C 26.140 189.259,29.784 185.612,32.698 182.698 C 39.671 175.726,42.540 172.857,49.498 165.898 C 56.732 158.664,58.664 156.732,65.898 149.498 C 77.764 137.633,87.633 127.764,99.498 115.898 C 106.732 108.664,108.664 106.732,115.898 99.498 C 127.747 87.650,137.804 77.593,149.549 65.847 C 152.711 62.685,156.378 59.018,157.698 57.698 C 159.018 56.378,162.708 52.688,165.898 49.498 C 173.766 41.631,176.396 39.001,182.647 32.749 C 185.589 29.807,189.302 26.097,190.898 24.504 C 192.494 22.912,195.690 19.640,198.000 17.233 C 201.405 13.685,202.421 12.852,203.367 12.829 C 205.184 12.784,204.356 12.412,201.998 12.214 C 200.827 12.116,199.721 11.802,199.541 11.518 C 199.285 11.115,199.210 11.133,199.200 11.600 C 199.191 12.056,199.111 12.079,198.867 11.694 C 198.556 11.205,192.004 11.115,192.001 11.600 C 192.001 11.710,191.550 11.800,191.000 11.800 C 190.450 11.800,190.000 11.643,190.000 11.451 C 190.000 11.259,189.695 11.349,189.323 11.651 C 188.863 12.024,188.743 12.040,188.947 11.700 C 189.252 11.192,189.112 11.021,188.716 11.418 M156.800 91.567 C 156.250 91.761,154.326 91.938,152.524 91.960 C 150.722 91.982,149.136 92.180,149.000 92.400 C 148.864 92.620,147.964 92.800,147.000 92.800 C 146.036 92.800,145.136 92.980,145.000 93.200 C 144.667 93.738,145.246 93.699,149.000 92.924 C 151.819 92.342,157.563 92.235,197.200 92.021 C 221.950 91.888,234.805 91.739,225.766 91.690 C 216.727 91.640,197.737 91.513,183.566 91.407 C 169.105 91.298,157.361 91.368,156.800 91.567 M244.200 92.245 C 246.213 92.389,251.171 93.044,253.400 93.460 C 254.205 93.611,254.468 93.552,254.200 93.281 C 253.696 92.773,250.879 92.415,246.000 92.239 C 243.910 92.164,243.100 92.167,244.200 92.245 M137.600 95.157 C 135.290 95.968,132.770 96.922,132.000 97.276 C 131.230 97.630,130.015 98.161,129.300 98.457 C 128.585 98.753,128.000 99.131,128.000 99.298 C 128.000 99.464,127.640 99.600,127.200 99.600 C 126.760 99.600,126.400 99.759,126.400 99.953 C 126.400 100.148,126.085 100.407,125.700 100.529 C 124.791 100.817,122.847 102.012,121.842 102.900 C 121.406 103.285,120.853 103.600,120.613 103.600 C 120.373 103.600,119.917 103.960,119.600 104.400 C 119.283 104.840,118.793 105.200,118.512 105.200 C 118.230 105.200,118.000 105.380,118.000 105.600 C 118.000 105.820,117.823 106.000,117.606 106.000 C 117.030 106.000,113.676 109.185,107.700 115.409 C 106.765 116.382,106.000 117.364,106.000 117.589 C 106.000 117.815,105.820 118.000,105.600 118.000 C 105.380 118.000,105.200 118.230,105.200 118.512 C 105.200 118.793,104.840 119.283,104.400 119.600 C 103.960 119.917,103.600 120.373,103.600 120.613 C 103.600 120.853,103.285 121.406,102.900 121.842 C 102.012 122.847,100.817 124.791,100.529 125.700 C 100.407 126.085,100.148 126.400,99.953 126.400 C 99.759 126.400,99.600 126.760,99.600 127.200 C 99.600 127.640,99.464 128.000,99.298 128.000 C 99.131 128.000,98.756 128.585,98.463 129.300 C 98.171 130.015,97.597 131.320,97.189 132.200 C 95.967 134.836,93.600 142.150,93.600 143.290 C 93.600 143.875,93.420 144.464,93.200 144.600 C 92.980 144.736,92.800 145.726,92.800 146.800 C 92.800 147.874,92.620 148.864,92.400 149.000 C 92.180 149.136,92.000 150.688,92.000 152.450 C 92.000 154.211,91.822 155.984,91.605 156.390 C 91.347 156.872,91.313 171.877,91.505 199.664 L 91.800 242.200 92.018 197.400 C 92.267 146.192,92.102 148.649,96.075 137.000 C 97.690 132.266,104.172 120.342,105.969 118.800 C 106.097 118.690,107.491 117.066,109.066 115.192 C 110.642 113.317,113.431 110.529,115.265 108.996 C 117.099 107.464,118.690 106.103,118.800 105.972 C 120.626 103.809,132.771 97.450,138.600 95.605 C 145.069 93.558,144.822 93.662,143.200 93.672 C 142.430 93.677,139.910 94.345,137.600 95.157 M257.577 94.421 C 258.994 94.838,260.234 95.099,260.334 95.000 C 260.433 94.900,260.264 94.750,259.957 94.666 C 259.651 94.582,258.757 94.308,257.972 94.056 C 257.186 93.805,256.196 93.614,255.772 93.631 C 255.347 93.647,256.159 94.003,257.577 94.421 M261.400 95.600 C 262.501 96.073,262.892 96.073,262.600 95.600 C 262.464 95.380,261.958 95.213,261.476 95.228 C 260.631 95.255,260.629 95.269,261.400 95.600 M265.759 97.222 C 267.276 97.879,268.606 98.328,268.714 98.219 C 268.822 98.111,268.481 97.859,267.955 97.659 C 267.430 97.459,266.303 97.004,265.451 96.648 C 264.599 96.291,263.699 96.006,263.451 96.014 C 263.203 96.022,264.241 96.566,265.759 97.222 M272.533 100.245 C 272.716 100.440,274.193 101.409,275.816 102.400 C 284.159 107.492,293.312 116.784,298.176 125.100 C 298.980 126.475,299.737 127.600,299.857 127.600 C 299.978 127.600,299.581 126.745,298.975 125.700 C 294.636 118.213,288.000 110.784,280.793 105.345 C 277.603 102.937,271.549 99.199,272.533 100.245 M153.132 145.085 L 143.991 154.171 140.985 151.185 C 136.432 146.662,132.008 147.146,132.002 152.168 C 131.999 154.711,141.432 164.000,144.017 164.000 L 145.770 164.000 156.885 152.885 C 169.491 140.279,169.617 140.079,166.769 137.231 C 164.013 134.475,163.523 134.757,153.132 145.085 M166.700 137.822 C 168.849 140.264,168.713 140.462,156.403 152.766 C 143.299 165.865,144.290 165.558,137.525 158.600 C 131.872 152.786,131.520 151.998,133.536 149.674 C 135.184 147.774,137.287 148.395,140.903 151.849 L 144.095 154.899 153.147 145.893 C 158.126 140.940,162.470 136.786,162.800 136.661 C 163.920 136.237,165.797 136.795,166.700 137.822 M305.044 140.600 C 305.373 142.071,305.602 142.390,305.594 141.367 C 305.591 140.945,305.405 140.330,305.182 140.000 C 304.885 139.562,304.848 139.724,305.044 140.600 M305.634 142.800 C 305.646 143.130,305.811 143.760,306.000 144.200 L 306.344 145.000 306.366 144.200 C 306.378 143.760,306.213 143.130,306.000 142.800 C 305.655 142.267,305.615 142.267,305.634 142.800 M306.659 147.400 C 306.793 148.500,306.969 149.475,307.051 149.567 C 307.364 149.917,307.126 146.961,306.780 146.200 C 306.535 145.661,306.495 146.054,306.659 147.400 M178.121 148.405 C 174.957 149.679,175.630 154.883,179.092 155.920 C 181.624 156.679,263.536 156.605,265.361 155.842 C 266.777 155.251,268.010 153.825,267.984 152.811 C 267.976 152.475,267.720 152.771,267.417 153.469 C 266.443 155.707,268.422 155.618,221.828 155.505 L 178.422 155.400 177.557 154.534 C 176.364 153.341,176.364 150.659,177.556 149.466 L 178.422 148.600 221.911 148.396 L 265.400 148.191 222.200 148.121 C 197.883 148.081,178.616 148.205,178.121 148.405 M307.519 154.200 C 307.622 156.620,307.772 158.675,307.853 158.767 C 308.118 159.067,307.912 152.230,307.619 151.000 C 307.462 150.340,307.417 151.780,307.519 154.200 M162.400 184.255 C 162.070 184.383,157.805 188.462,152.922 193.318 L 144.045 202.149 140.827 199.074 C 136.977 195.396,135.439 195.023,133.231 197.231 C 130.727 199.735,131.197 200.904,137.106 206.856 C 142.135 211.923,142.238 212.000,144.004 212.000 L 145.797 212.000 156.898 200.879 C 167.685 190.072,168.000 189.713,167.998 188.179 C 167.994 185.313,165.030 183.236,162.400 184.255 M166.431 185.569 C 169.046 188.184,168.948 188.336,156.682 200.644 C 142.788 214.586,144.733 214.205,135.697 204.749 C 131.873 200.747,131.535 199.604,133.569 197.569 C 135.624 195.515,136.972 195.866,140.587 199.400 C 142.275 201.050,143.867 202.400,144.125 202.400 C 144.383 202.400,148.195 198.752,152.597 194.294 C 163.449 183.302,163.887 183.026,166.431 185.569 M177.505 196.938 C 175.527 198.770,175.565 201.751,177.585 203.189 C 178.701 203.984,179.171 204.007,191.670 203.900 L 204.600 203.789 191.536 203.694 L 178.471 203.600 177.436 202.369 C 176.852 201.676,176.400 200.641,176.400 200.000 C 176.400 199.359,176.852 198.324,177.436 197.631 L 178.471 196.400 221.862 196.400 C 267.578 196.400,266.311 196.347,267.376 198.310 C 267.702 198.910,267.975 199.161,267.984 198.869 C 267.993 198.577,267.474 197.812,266.831 197.169 L 265.662 196.000 222.089 196.000 L 178.517 196.000 177.505 196.938 M267.391 201.628 C 267.247 202.083,266.560 202.802,265.864 203.226 C 265.078 203.705,264.851 203.998,265.264 203.999 C 265.931 204.000,268.000 201.861,268.000 201.169 C 268.000 200.519,267.662 200.773,267.391 201.628 M11.790 204.369 C 11.993 205.008,11.947 205.214,11.643 205.026 C 11.399 204.876,11.200 204.933,11.200 205.153 C 11.200 205.861,11.895 206.009,12.394 205.407 C 12.782 204.940,12.740 204.683,12.187 204.130 C 11.530 203.473,11.510 203.486,11.790 204.369 M307.781 232.800 C 307.781 240.830,307.834 244.115,307.899 240.100 C 307.965 236.085,307.965 229.515,307.899 225.500 C 307.834 221.485,307.781 224.770,307.781 232.800 M153.142 241.075 L 144.012 250.150 140.799 247.024 L 137.587 243.897 135.707 244.109 C 133.337 244.376,132.005 245.832,132.002 248.156 C 132.000 249.975,141.388 260.044,143.006 259.957 C 143.654 259.923,143.603 259.837,142.731 259.491 C 140.602 258.647,132.400 249.848,132.400 248.409 C 132.400 243.500,136.552 243.118,141.015 247.616 C 142.535 249.147,143.895 250.400,144.038 250.400 C 144.180 250.400,148.336 246.350,153.273 241.400 C 163.761 230.883,165.097 230.243,167.389 234.638 C 167.820 235.464,167.996 235.589,167.998 235.069 C 168.002 233.654,165.831 232.000,163.967 232.000 C 162.292 232.000,162.165 232.106,153.142 241.075 M167.632 236.983 C 167.598 237.808,146.564 259.200,145.786 259.200 C 145.548 259.200,145.004 259.468,144.576 259.795 C 143.861 260.342,143.898 260.356,145.035 259.978 C 147.296 259.226,168.306 237.784,167.860 236.685 C 167.752 236.418,167.649 236.552,167.632 236.983 M92.239 246.000 C 92.415 250.879,92.773 253.696,93.281 254.200 C 93.552 254.468,93.611 254.205,93.460 253.400 C 93.044 251.171,92.389 246.213,92.245 244.200 C 92.167 243.100,92.164 243.910,92.239 246.000 M178.913 244.130 C 176.827 244.892,176.200 245.786,176.200 248.003 C 176.200 251.148,177.063 251.740,182.110 252.058 C 187.604 252.404,264.015 252.417,264.887 252.072 C 265.265 251.922,259.055 251.800,251.087 251.800 C 172.679 251.800,176.600 251.994,176.600 248.107 C 176.600 244.116,176.008 244.156,236.440 244.049 C 266.099 243.996,265.914 243.983,267.236 246.152 C 267.655 246.839,267.998 247.215,267.999 246.989 C 268.002 246.146,266.652 244.697,265.361 244.158 C 263.558 243.405,180.974 243.379,178.913 244.130 M266.819 250.505 L 265.895 251.800 267.026 250.712 C 267.649 250.114,268.064 249.531,267.950 249.417 C 267.836 249.303,267.327 249.793,266.819 250.505 M306.893 251.200 C 306.893 251.970,306.975 252.285,307.076 251.900 C 307.176 251.515,307.176 250.885,307.076 250.500 C 306.975 250.115,306.893 250.430,306.893 251.200 M305.850 256.050 C 305.709 256.753,305.669 257.402,305.759 257.492 C 305.850 257.583,306.048 257.091,306.200 256.400 C 306.352 255.709,306.393 255.059,306.291 254.958 C 306.189 254.856,305.991 255.347,305.850 256.050 M93.631 255.772 C 93.614 256.196,93.805 257.186,94.056 257.972 C 94.308 258.757,94.582 259.651,94.666 259.957 C 94.750 260.264,94.900 260.433,95.000 260.334 C 95.099 260.234,94.838 258.994,94.421 257.577 C 94.003 256.159,93.647 255.347,93.631 255.772 M95.228 261.476 C 95.213 261.958,95.380 262.464,95.600 262.600 C 96.073 262.892,96.073 262.501,95.600 261.400 C 95.269 260.629,95.255 260.631,95.228 261.476 M96.014 263.451 C 96.006 263.699,96.291 264.599,96.648 265.451 C 97.004 266.303,97.459 267.430,97.659 267.955 C 97.859 268.481,98.111 268.822,98.219 268.714 C 98.328 268.606,97.879 267.276,97.222 265.759 C 96.566 264.241,96.022 263.203,96.014 263.451 M302.800 265.284 C 302.800 265.404,302.528 266.154,302.195 266.951 C 301.862 267.748,301.679 268.400,301.789 268.400 C 302.106 268.400,303.233 265.500,303.005 265.272 C 302.892 265.159,302.800 265.165,302.800 265.284 M98.400 269.339 C 98.400 269.766,99.714 272.019,99.871 271.862 C 100.077 271.656,98.895 269.200,98.590 269.200 C 98.485 269.200,98.400 269.262,98.400 269.339 M100.446 273.300 C 104.321 280.656,111.824 289.098,119.573 294.822 C 123.184 297.489,127.600 300.242,127.600 299.827 C 127.600 299.723,126.475 298.980,125.100 298.176 C 116.690 293.257,106.743 283.310,101.824 274.900 C 100.445 272.542,99.420 271.352,100.446 273.300 M295.144 279.500 C 293.993 280.889,293.506 281.600,293.704 281.600 C 293.814 281.600,294.386 280.970,294.973 280.200 C 296.063 278.771,296.195 278.232,295.144 279.500 M292.800 282.267 C 292.800 282.865,286.951 289.045,284.286 291.263 C 283.006 292.328,282.125 293.200,282.328 293.200 C 283.394 293.200,293.593 282.660,293.051 282.117 C 292.913 281.979,292.800 282.047,292.800 282.267 M279.985 294.829 L 278.600 296.058 280.100 294.981 C 281.426 294.030,281.857 293.600,281.485 293.600 C 281.422 293.600,280.747 294.153,279.985 294.829 M130.000 301.200 C 131.210 301.839,132.380 302.362,132.600 302.362 C 132.820 302.362,132.010 301.839,130.800 301.200 C 129.590 300.561,128.420 300.038,128.200 300.038 C 127.980 300.038,128.790 300.561,130.000 301.200 M268.400 301.600 C 267.630 302.022,267.144 302.374,267.320 302.383 C 267.744 302.405,270.000 301.232,270.000 300.990 C 270.000 300.728,269.977 300.737,268.400 301.600 M137.600 304.400 C 137.930 304.613,138.470 304.788,138.800 304.788 C 139.333 304.788,139.333 304.745,138.800 304.400 C 138.470 304.187,137.930 304.012,137.600 304.012 C 137.067 304.012,137.067 304.055,137.600 304.400 M140.000 305.182 C 140.330 305.405,140.945 305.591,141.367 305.594 C 142.390 305.602,142.071 305.373,140.600 305.044 C 139.724 304.848,139.562 304.885,140.000 305.182 M142.800 306.000 C 143.130 306.213,143.760 306.378,144.200 306.366 L 145.000 306.344 144.200 306.000 C 143.004 305.486,142.005 305.486,142.800 306.000 M255.600 306.000 C 254.796 306.257,254.757 306.323,255.400 306.332 C 255.840 306.338,256.560 306.189,257.000 306.000 C 258.019 305.562,256.968 305.562,255.600 306.000 M146.200 306.780 C 146.961 307.126,149.917 307.364,149.567 307.051 C 149.475 306.969,148.500 306.793,147.400 306.659 C 146.054 306.495,145.661 306.535,146.200 306.780 M250.500 307.076 C 250.885 307.176,251.515 307.176,251.900 307.076 C 252.285 306.975,251.970 306.893,251.200 306.893 C 250.430 306.893,250.115 306.975,250.500 307.076 M151.000 307.616 C 152.226 307.912,158.669 308.119,158.367 307.854 C 158.275 307.773,156.310 307.622,154.000 307.517 C 151.690 307.413,150.340 307.457,151.000 307.616 M241.513 307.895 C 242.676 307.976,244.476 307.976,245.513 307.893 C 246.551 307.811,245.600 307.745,243.400 307.746 C 241.200 307.747,240.351 307.814,241.513 307.895 " stroke="none" fill="#87f3e7" fill-rule="evenodd"></path><path id="path4" d="M190.262 11.500 C 190.160 11.665,190.509 11.800,191.038 11.800 C 191.567 11.800,192.000 11.665,192.000 11.500 C 192.000 11.335,191.651 11.200,191.224 11.200 C 190.797 11.200,190.364 11.335,190.262 11.500 M194.186 11.843 C 194.872 12.529,195.061 12.539,195.306 11.900 C 195.423 11.596,195.132 11.378,194.564 11.343 C 193.765 11.295,193.710 11.368,194.186 11.843 M199.600 11.679 C 199.600 11.855,199.735 12.009,199.900 12.019 C 203.625 12.254,205.827 12.768,203.367 12.829 C 202.421 12.852,201.405 13.685,198.000 17.233 C 195.690 19.640,192.494 22.912,190.898 24.504 C 189.302 26.097,185.589 29.807,182.647 32.749 C 176.396 39.001,173.766 41.631,165.898 49.498 C 158.664 56.732,156.732 58.664,149.498 65.898 C 142.483 72.914,139.728 75.669,132.698 82.698 C 125.669 89.728,122.914 92.483,115.898 99.498 C 108.664 106.732,106.732 108.664,99.498 115.898 C 87.633 127.764,77.764 137.633,65.898 149.498 C 58.664 156.732,56.732 158.664,49.498 165.898 C 41.631 173.766,39.001 176.396,32.749 182.647 C 29.807 185.589,26.097 189.302,24.504 190.898 C 22.912 192.494,19.640 195.690,17.233 198.000 C 14.826 200.310,12.844 202.509,12.829 202.887 C 12.811 203.315,12.583 203.492,12.225 203.354 C 11.909 203.233,11.748 202.879,11.868 202.567 C 11.988 202.255,11.923 202.000,11.725 202.000 C 11.188 202.000,11.106 204.694,11.632 205.020 C 11.949 205.216,11.996 205.019,11.790 204.369 C 11.510 203.486,11.530 203.473,12.187 204.130 C 12.894 204.836,12.365 206.273,11.577 205.786 C 11.395 205.673,11.286 206.877,11.336 208.462 C 11.394 210.296,11.604 211.401,11.914 211.505 C 12.181 211.594,12.400 211.826,12.400 212.021 C 12.400 212.216,12.128 212.271,11.795 212.143 C 11.363 211.977,11.261 212.094,11.438 212.555 C 11.574 212.910,11.801 213.200,11.943 213.200 C 12.084 213.200,12.177 214.955,12.149 217.100 C 12.120 219.245,12.252 221.098,12.441 221.219 C 12.630 221.339,12.818 222.689,12.859 224.219 C 12.900 225.748,13.085 227.305,13.269 227.677 C 13.453 228.050,13.628 229.130,13.658 230.077 C 13.688 231.025,13.879 232.124,14.082 232.521 C 14.285 232.918,14.461 233.955,14.473 234.827 C 14.485 235.698,14.653 236.509,14.847 236.629 C 15.041 236.749,15.200 237.647,15.200 238.624 C 15.200 239.601,15.380 240.400,15.600 240.400 C 15.820 240.400,16.000 241.109,16.000 241.976 C 16.000 242.843,16.160 243.652,16.356 243.773 C 16.692 243.980,16.927 244.991,17.457 248.500 C 17.582 249.325,17.845 250.000,18.042 250.000 C 18.239 250.000,18.400 250.529,18.400 251.176 C 18.400 251.823,18.580 252.464,18.800 252.600 C 19.020 252.736,19.200 253.366,19.200 254.000 C 19.200 254.634,19.380 255.264,19.600 255.400 C 19.820 255.536,20.000 256.076,20.000 256.600 C 20.000 257.124,20.180 257.664,20.400 257.800 C 20.620 257.936,20.800 258.487,20.800 259.024 C 20.800 259.561,20.980 260.000,21.200 260.000 C 21.420 260.000,21.600 260.641,21.600 261.424 C 21.600 262.271,21.762 262.747,22.000 262.600 C 22.237 262.453,22.400 262.918,22.400 263.743 C 22.400 264.508,22.590 265.197,22.822 265.274 C 23.054 265.351,23.289 265.721,23.344 266.096 C 23.399 266.470,23.569 266.902,23.722 267.055 C 23.875 267.208,24.000 267.663,24.000 268.067 C 24.000 268.470,24.180 268.800,24.400 268.800 C 24.620 268.800,24.800 269.155,24.800 269.588 C 24.800 270.021,25.157 271.011,25.593 271.788 C 26.029 272.565,26.295 273.200,26.184 273.200 C 26.073 273.200,26.245 273.605,26.568 274.100 C 26.890 274.595,27.250 275.540,27.368 276.199 C 27.486 276.859,27.869 277.607,28.217 277.862 C 28.566 278.117,28.803 278.568,28.742 278.863 C 28.682 279.158,28.856 279.805,29.130 280.300 C 29.404 280.795,29.487 281.203,29.314 281.206 C 29.141 281.209,29.198 281.344,29.440 281.506 C 30.234 282.036,31.882 284.985,31.777 285.688 C 31.721 286.066,31.875 286.336,32.119 286.288 C 32.364 286.239,32.587 286.380,32.615 286.600 C 32.740 287.568,33.618 289.200,34.014 289.200 C 34.252 289.200,34.336 289.380,34.200 289.600 C 34.064 289.820,34.143 290.000,34.376 290.000 C 34.609 290.000,34.779 290.135,34.753 290.300 C 34.621 291.133,34.862 291.600,35.424 291.600 C 35.767 291.600,35.935 291.781,35.798 292.003 C 35.575 292.365,36.759 293.943,37.071 293.700 C 37.478 293.383,37.687 293.673,37.318 294.042 C 36.996 294.364,37.098 294.859,37.696 295.872 C 38.308 296.909,38.604 297.127,38.866 296.731 C 39.096 296.383,39.155 296.578,39.036 297.293 C 38.937 297.895,39.051 298.508,39.289 298.655 C 39.549 298.815,39.609 298.737,39.438 298.462 C 39.281 298.208,39.343 298.000,39.576 298.000 C 39.809 298.000,40.000 298.285,40.000 298.633 C 40.000 299.451,40.900 299.162,41.026 298.304 C 41.107 297.753,42.315 296.293,44.375 294.257 C 44.630 294.006,48.294 290.343,52.519 286.119 C 56.743 281.894,60.380 278.257,60.600 278.038 C 67.437 271.201,77.501 261.136,77.800 260.835 C 78.020 260.613,81.264 257.409,85.009 253.715 L 91.818 246.999 91.497 202.199 C 91.278 171.631,91.306 157.108,91.588 156.481 C 91.814 155.976,92.000 154.141,92.000 152.405 C 92.000 150.668,92.180 149.136,92.400 149.000 C 92.620 148.864,92.800 147.874,92.800 146.800 C 92.800 145.726,92.980 144.736,93.200 144.600 C 93.420 144.464,93.600 143.875,93.600 143.290 C 93.600 142.150,95.967 134.836,97.189 132.200 C 97.597 131.320,98.171 130.015,98.463 129.300 C 98.756 128.585,99.131 128.000,99.298 128.000 C 99.464 128.000,99.600 127.640,99.600 127.200 C 99.600 126.760,99.759 126.400,99.953 126.400 C 100.148 126.400,100.407 126.085,100.529 125.700 C 100.817 124.791,102.012 122.847,102.900 121.842 C 103.285 121.406,103.600 120.853,103.600 120.613 C 103.600 120.373,103.960 119.917,104.400 119.600 C 104.840 119.283,105.200 118.793,105.200 118.512 C 105.200 118.230,105.380 118.000,105.600 118.000 C 105.820 118.000,106.000 117.815,106.000 117.589 C 106.000 116.753,116.768 106.000,117.606 106.000 C 117.823 106.000,118.000 105.820,118.000 105.600 C 118.000 105.380,118.230 105.200,118.512 105.200 C 118.793 105.200,119.283 104.840,119.600 104.400 C 119.917 103.960,120.373 103.600,120.613 103.600 C 120.853 103.600,121.406 103.285,121.842 102.900 C 122.847 102.012,124.791 100.817,125.700 100.529 C 126.085 100.407,126.400 100.148,126.400 99.953 C 126.400 99.759,126.760 99.600,127.200 99.600 C 127.640 99.600,128.000 99.464,128.000 99.298 C 128.000 99.131,128.585 98.756,129.300 98.463 C 130.015 98.171,131.320 97.597,132.200 97.189 C 135.037 95.874,142.190 93.600,143.490 93.600 C 144.185 93.600,144.864 93.420,145.000 93.200 C 145.136 92.980,146.036 92.800,147.000 92.800 C 147.964 92.800,148.864 92.620,149.000 92.400 C 149.136 92.180,150.531 92.000,152.100 92.000 C 153.668 92.000,155.953 91.799,157.176 91.553 C 158.799 91.226,171.227 91.202,203.199 91.462 L 246.997 91.819 253.714 85.010 C 257.409 81.264,260.613 78.020,260.835 77.800 C 261.130 77.507,272.349 66.290,277.919 60.719 C 278.073 60.564,281.710 56.927,286.000 52.637 C 290.290 48.347,294.032 44.604,294.315 44.319 C 297.670 40.937,298.272 40.507,298.744 41.154 C 299.147 41.706,299.182 41.669,298.981 40.900 C 298.836 40.343,298.926 40.000,299.217 40.000 C 299.477 40.000,299.265 39.657,298.747 39.238 C 298.104 38.717,297.600 38.586,297.156 38.824 C 296.354 39.253,295.975 38.930,296.297 38.091 C 296.478 37.620,296.365 37.528,295.849 37.726 C 295.438 37.884,295.257 37.831,295.403 37.595 C 295.537 37.378,295.349 37.200,294.984 37.200 C 294.619 37.200,293.799 36.641,293.160 35.958 C 292.522 35.274,292.000 34.914,292.000 35.158 C 292.000 35.401,291.809 35.600,291.576 35.600 C 291.343 35.600,291.265 35.418,291.403 35.195 C 291.542 34.971,291.114 34.683,290.442 34.548 C 289.776 34.415,289.269 34.102,289.316 33.853 C 289.362 33.604,288.905 33.343,288.300 33.273 C 287.695 33.204,287.200 32.968,287.200 32.750 C 287.200 32.531,287.039 32.452,286.842 32.574 C 286.645 32.696,286.381 32.526,286.254 32.198 C 286.125 31.859,285.526 31.600,284.875 31.600 C 284.232 31.600,283.404 31.247,283.000 30.800 C 282.602 30.360,282.034 30.000,281.738 30.000 C 281.442 30.000,281.200 29.858,281.200 29.685 C 281.200 29.512,280.798 29.340,280.306 29.303 C 279.814 29.266,279.349 29.048,279.273 28.818 C 279.196 28.588,278.921 28.400,278.661 28.400 C 278.401 28.400,277.497 28.029,276.651 27.576 C 275.806 27.123,275.022 26.845,274.909 26.957 C 274.797 27.070,274.442 26.899,274.120 26.577 C 273.799 26.256,273.370 26.095,273.168 26.220 C 272.965 26.345,272.800 26.257,272.800 26.024 C 272.800 25.791,272.260 25.600,271.600 25.600 C 270.940 25.600,270.400 25.420,270.400 25.200 C 270.400 24.980,270.145 24.800,269.833 24.800 C 269.522 24.800,269.207 24.622,269.133 24.403 C 269.060 24.185,268.505 23.966,267.900 23.916 C 267.295 23.866,266.800 23.685,266.800 23.513 C 266.800 23.341,266.440 23.200,266.000 23.200 C 265.560 23.200,265.200 23.020,265.200 22.800 C 265.200 22.580,264.671 22.400,264.024 22.400 C 263.377 22.400,262.736 22.220,262.600 22.000 C 262.464 21.780,261.823 21.600,261.176 21.600 C 260.529 21.600,260.000 21.420,260.000 21.200 C 260.000 20.980,259.550 20.800,259.000 20.800 C 258.450 20.800,258.000 20.620,258.000 20.400 C 258.000 20.180,257.460 20.000,256.800 20.000 C 256.140 20.000,255.600 19.820,255.600 19.600 C 255.600 19.380,254.880 19.200,254.000 19.200 C 253.120 19.200,252.400 19.040,252.400 18.845 C 252.400 18.650,251.905 18.391,251.300 18.270 C 250.217 18.053,248.051 17.533,245.100 16.782 C 240.839 15.697,240.091 15.527,238.800 15.346 C 238.030 15.239,236.995 14.951,236.501 14.708 C 236.006 14.465,235.495 14.371,235.366 14.501 C 235.236 14.630,234.291 14.505,233.265 14.223 C 232.239 13.941,230.860 13.681,230.200 13.645 C 228.619 13.560,227.886 13.428,227.400 13.142 C 227.180 13.012,226.100 12.931,225.000 12.962 C 223.900 12.992,222.550 12.812,222.000 12.560 C 221.430 12.299,219.237 12.124,216.900 12.151 C 214.404 12.181,212.797 12.043,212.794 11.800 C 212.790 11.580,212.613 11.670,212.400 12.000 C 212.187 12.330,212.009 12.396,212.006 12.147 C 211.997 11.503,210.645 11.231,209.802 11.703 C 209.329 11.968,209.173 11.967,209.337 11.702 C 209.496 11.445,207.815 11.313,204.592 11.330 C 201.846 11.345,199.600 11.502,199.600 11.679 M249.800 92.400 C 250.916 92.880,252.096 92.880,251.800 92.400 C 251.664 92.180,250.978 92.013,250.276 92.028 C 249.200 92.052,249.126 92.110,249.800 92.400 M254.200 93.200 C 254.336 93.420,254.717 93.600,255.047 93.600 C 255.377 93.600,255.536 93.420,255.400 93.200 C 255.264 92.980,254.883 92.800,254.553 92.800 C 254.223 92.800,254.064 92.980,254.200 93.200 M257.600 94.000 C 257.930 94.213,258.594 94.391,259.076 94.394 C 259.558 94.397,260.064 94.580,260.200 94.800 C 260.336 95.020,260.799 95.200,261.229 95.200 C 261.659 95.200,262.323 95.366,262.705 95.568 C 263.087 95.770,264.480 96.346,265.800 96.847 C 268.049 97.701,271.574 99.437,274.800 101.279 L 276.200 102.079 275.217 101.275 C 274.086 100.351,268.126 97.315,264.600 95.868 C 260.637 94.241,256.100 93.030,257.600 94.000 M277.194 102.782 C 277.741 103.202,278.268 103.466,278.365 103.369 C 278.591 103.142,277.129 102.027,276.600 102.022 C 276.380 102.020,276.647 102.361,277.194 102.782 M283.222 107.070 C 283.234 107.251,283.774 107.819,284.422 108.330 C 285.070 108.842,285.590 109.112,285.578 108.930 C 285.566 108.749,285.026 108.181,284.378 107.670 C 283.730 107.158,283.210 106.888,283.222 107.070 M301.078 129.795 C 301.444 130.562,301.814 131.119,301.901 131.032 C 302.084 130.849,300.870 128.400,300.596 128.400 C 300.495 128.400,300.712 129.028,301.078 129.795 M162.800 136.661 C 162.470 136.786,158.126 140.940,153.147 145.893 L 144.095 154.899 140.903 151.849 C 136.583 147.723,133.516 147.606,132.531 151.531 C 131.843 154.273,142.002 164.014,144.888 163.381 C 146.020 163.132,166.226 143.420,167.185 141.628 C 168.599 138.985,165.608 135.597,162.800 136.661 M178.586 148.781 C 176.527 149.615,175.937 152.914,177.557 154.534 L 178.422 155.400 221.911 155.404 L 265.400 155.409 224.700 155.303 C 202.315 155.244,184.000 155.104,184.000 154.992 C 184.000 154.879,185.346 153.441,186.992 151.796 L 189.983 148.804 227.892 148.700 L 265.800 148.596 222.600 148.523 C 198.840 148.483,179.034 148.599,178.586 148.781 M266.655 149.800 C 267.580 151.379,267.600 151.403,267.600 150.911 C 267.600 150.679,267.229 150.064,266.776 149.544 L 265.953 148.600 266.655 149.800 M307.458 150.400 C 307.775 152.125,308.002 152.451,307.994 151.167 C 307.991 150.635,307.811 149.930,307.594 149.600 C 307.318 149.178,307.277 149.415,307.458 150.400 M266.694 154.103 L 265.988 155.400 266.794 154.456 C 267.480 153.652,267.846 152.794,267.500 152.803 C 267.445 152.804,267.082 153.389,266.694 154.103 M308.193 198.600 C 308.193 221.920,308.241 231.519,308.300 219.931 C 308.359 208.342,308.359 189.262,308.300 177.531 C 308.241 165.799,308.193 175.280,308.193 198.600 M161.754 185.294 C 161.119 185.785,156.999 189.835,152.597 194.294 C 148.195 198.752,144.383 202.400,144.125 202.400 C 143.867 202.400,142.275 201.050,140.587 199.400 C 136.972 195.866,135.624 195.515,133.569 197.569 C 131.535 199.604,131.873 200.747,135.697 204.749 C 141.709 211.041,142.385 211.600,143.978 211.600 C 145.435 211.600,148.400 209.662,148.400 208.710 C 148.400 208.472,148.085 208.630,147.700 209.061 C 145.233 211.823,143.172 211.909,140.750 209.352 C 139.788 208.335,138.235 206.720,137.300 205.762 C 135.198 203.610,135.199 203.580,137.389 201.389 C 139.571 199.208,139.681 199.203,141.600 201.200 C 143.848 203.540,143.769 203.589,153.617 193.800 C 160.929 186.533,162.880 184.800,163.750 184.800 C 165.018 184.800,166.800 185.865,166.800 186.622 C 166.800 186.914,166.980 187.264,167.200 187.400 C 168.065 187.935,167.535 186.674,166.431 185.569 C 165.001 184.140,163.368 184.043,161.754 185.294 M11.548 187.100 C 11.349 188.261,11.413 189.600,11.669 189.600 C 11.838 189.600,11.952 188.970,11.923 188.200 C 11.875 186.928,11.678 186.348,11.548 187.100 M167.092 188.642 C 166.931 188.802,166.800 189.209,166.800 189.547 C 166.800 189.997,166.918 190.042,167.245 189.715 C 167.490 189.470,167.621 189.063,167.537 188.810 C 167.452 188.557,167.252 188.481,167.092 188.642 M165.660 191.042 C 165.362 191.378,165.199 191.732,165.295 191.829 C 165.392 191.926,165.798 191.644,166.198 191.202 C 166.597 190.761,166.761 190.407,166.562 190.415 C 166.363 190.424,165.957 190.705,165.660 191.042 M11.268 192.821 C 11.231 193.753,11.365 194.345,11.582 194.211 C 11.789 194.083,11.889 193.424,11.803 192.746 C 11.574 190.937,11.340 190.970,11.268 192.821 M11.354 195.377 C 11.232 195.694,11.203 196.279,11.289 196.677 C 11.387 197.128,11.524 196.912,11.654 196.100 C 11.871 194.738,11.730 194.396,11.354 195.377 M160.137 196.600 C 159.147 197.590,158.489 198.400,158.674 198.400 C 158.860 198.400,159.797 197.590,160.756 196.600 C 161.716 195.610,162.374 194.800,162.219 194.800 C 162.064 194.800,161.127 195.610,160.137 196.600 M11.604 198.995 C 11.042 199.672,11.377 201.600,12.057 201.600 C 12.367 201.600,12.360 201.433,12.032 201.039 C 11.675 200.608,11.687 200.422,12.083 200.239 C 12.506 200.044,12.506 199.956,12.083 199.761 C 11.687 199.578,11.675 199.392,12.032 198.961 C 12.288 198.652,12.408 198.400,12.298 198.400 C 12.188 198.400,11.876 198.668,11.604 198.995 M153.265 203.463 C 150.770 205.993,148.799 208.132,148.884 208.218 C 148.970 208.303,151.188 206.219,153.814 203.586 C 156.439 200.954,158.410 198.814,158.194 198.832 C 157.977 198.849,155.759 200.933,153.265 203.463 M176.493 200.000 C 176.493 200.770,176.575 201.085,176.676 200.700 C 176.776 200.315,176.776 199.685,176.676 199.300 C 176.575 198.915,176.493 199.230,176.493 200.000 M219.270 203.900 C 227.559 203.960,241.239 203.960,249.670 203.900 C 258.102 203.840,251.320 203.790,234.600 203.790 C 217.880 203.790,210.982 203.839,219.270 203.900 M157.972 236.663 C 155.567 239.008,153.600 241.085,153.600 241.279 C 153.600 241.473,155.454 239.779,157.720 237.516 C 159.985 235.252,162.190 233.186,162.620 232.924 C 163.080 232.642,163.184 232.437,162.872 232.424 C 162.581 232.411,160.376 234.319,157.972 236.663 M167.029 237.508 C 166.906 237.897,162.127 242.881,156.410 248.582 C 150.693 254.284,146.067 259.000,146.129 259.063 C 146.361 259.294,167.600 237.749,167.600 237.283 C 167.600 236.572,167.287 236.695,167.029 237.508 M150.468 244.127 C 149.235 245.440,149.387 245.849,150.642 244.594 C 151.216 244.021,151.606 243.473,151.511 243.377 C 151.415 243.282,150.946 243.619,150.468 244.127 M219.900 244.300 C 228.095 244.360,241.505 244.360,249.700 244.300 C 257.895 244.239,251.190 244.190,234.800 244.190 C 218.410 244.190,211.705 244.239,219.900 244.300 M135.300 244.676 C 135.685 244.776,136.315 244.776,136.700 244.676 C 137.085 244.575,136.770 244.493,136.000 244.493 C 135.230 244.493,134.915 244.575,135.300 244.676 M184.700 244.699 C 188.055 244.766,193.545 244.766,196.900 244.699 C 200.255 244.632,197.510 244.578,190.800 244.578 C 184.090 244.578,181.345 244.632,184.700 244.699 M138.000 244.919 C 138.000 245.203,141.281 248.563,143.098 250.140 C 143.888 250.825,144.019 250.832,144.865 250.240 C 145.367 249.888,145.594 249.600,145.369 249.600 C 145.144 249.600,144.742 249.818,144.475 250.085 C 144.095 250.465,143.342 249.926,140.995 247.595 C 139.348 245.959,138.000 244.754,138.000 244.919 M147.254 247.434 C 146.293 248.405,145.639 249.200,145.801 249.200 C 146.196 249.200,149.356 246.022,149.157 245.824 C 149.071 245.739,148.214 246.463,147.254 247.434 M176.493 248.000 C 176.493 248.770,176.575 249.085,176.676 248.700 C 176.776 248.315,176.776 247.685,176.676 247.300 C 176.575 246.915,176.493 247.230,176.493 248.000 M267.552 248.313 C 267.421 249.107,267.479 249.481,267.701 249.259 C 267.903 249.057,268.001 248.467,267.919 247.946 C 267.793 247.145,267.737 247.202,267.552 248.313 M92.028 250.276 C 92.013 250.978,92.180 251.664,92.400 251.800 C 92.880 252.096,92.880 250.916,92.400 249.800 C 92.110 249.126,92.052 249.200,92.028 250.276 M137.000 254.400 C 139.192 256.600,141.074 258.400,141.182 258.400 C 141.291 258.400,140.034 257.021,138.390 255.336 C 136.745 253.650,135.003 251.850,134.518 251.336 C 134.033 250.821,133.497 250.400,133.326 250.400 C 133.155 250.400,134.808 252.200,137.000 254.400 M243.300 251.899 C 247.205 251.965,253.595 251.965,257.500 251.899 C 261.405 251.834,258.210 251.780,250.400 251.780 C 242.590 251.780,239.395 251.834,243.300 251.899 M92.800 254.553 C 92.800 254.883,92.980 255.264,93.200 255.400 C 93.420 255.536,93.600 255.377,93.600 255.047 C 93.600 254.717,93.420 254.336,93.200 254.200 C 92.980 254.064,92.800 254.223,92.800 254.553 M93.819 258.400 C 94.482 261.862,99.371 272.888,101.275 275.217 L 102.079 276.200 101.279 274.800 C 99.437 271.574,97.701 268.049,96.847 265.800 C 96.346 264.480,95.770 263.087,95.568 262.705 C 95.366 262.323,95.200 261.659,95.200 261.229 C 95.200 260.799,95.020 260.336,94.800 260.200 C 94.580 260.064,94.397 259.558,94.394 259.076 C 94.391 258.594,94.200 257.930,93.970 257.600 C 93.662 257.158,93.622 257.369,93.819 258.400 M143.300 259.632 C 143.775 259.909,144.225 259.909,144.700 259.632 C 145.271 259.299,145.142 259.224,144.000 259.224 C 142.858 259.224,142.729 259.299,143.300 259.632 M102.022 276.600 C 102.027 277.129,103.142 278.591,103.369 278.365 C 103.466 278.268,103.202 277.741,102.782 277.194 C 102.361 276.647,102.020 276.380,102.022 276.600 M106.800 283.325 C 106.800 283.394,107.373 283.979,108.074 284.625 L 109.349 285.800 108.374 284.522 C 107.547 283.437,106.800 282.869,106.800 283.325 M118.544 294.309 C 118.860 294.821,121.200 296.553,121.200 296.275 C 121.200 296.176,120.539 295.591,119.732 294.975 C 118.924 294.359,118.389 294.059,118.544 294.309 M128.400 300.596 C 128.400 300.870,130.849 302.084,131.032 301.901 C 131.119 301.814,130.562 301.444,129.795 301.078 C 129.028 300.712,128.400 300.495,128.400 300.596 M149.600 307.594 C 149.930 307.811,150.635 307.991,151.167 307.994 C 152.451 308.002,152.125 307.775,150.400 307.458 C 149.415 307.277,149.178 307.318,149.600 307.594 M177.531 308.300 C 189.262 308.359,208.342 308.359,219.931 308.300 C 231.519 308.241,221.920 308.193,198.600 308.193 C 175.280 308.193,165.799 308.241,177.531 308.300 " stroke="none" fill="#7cece4" fill-rule="evenodd"></path></g></svg>